HIERARCHY
ROOT Hips
{
    OFFSET 0.000000 0.000000 0.000000
    CHANNELS 6 Xposition Yposition Zposition Zrotation Xrotation Yrotation
    JOINT Spine
    {
        OFFSET -0.000000 14.517291 0.000000
        CHANNELS 3 Zrotation Xrotation Yrotation
        JOINT Spine1
        {
            OFFSET -0.000000 37.558300 0.000000
            CHANNELS 3 Zrotation Xrotation Yrotation
            JOINT Neck
            {
                OFFSET -0.000000 37.404057 3.400369
                CHANNELS 3 Zrotation Xrotation Yrotation
                JOINT Head
                {
                    OFFSET -0.000000 24.785618 -3.540803
                    CHANNELS 3 Zrotation Xrotation Yrotation
                    End Site
                    {
                        OFFSET -0.000000 35.408028 0.000000
                    }
                }
            }
            JOINT LeftShoulder
            {
                OFFSET 6.992933 33.973492 -0.192664
                CHANNELS 3 Zrotation Xrotation Yrotation
                JOINT LeftArm
                {
                    OFFSET 21.527611 0.000000 0.000000
                    CHANNELS 3 Zrotation Xrotation Yrotation
                    JOINT LeftForeArm
                    {
                        OFFSET 56.353916 0.000000 0.000000
                        CHANNELS 3 Zrotation Xrotation Yrotation
                        JOINT LeftHand
                        {
                            OFFSET 47.774071 0.000000 0.000000
                            CHANNELS 3 Zrotation Xrotation Yrotation
                            End Site
                            {
                                OFFSET 26.556021 0.000000 0.000000
                            }
                        }
                    }
                }
            }
            JOINT RightShoulder
            {
                OFFSET -7.065357 33.973492 -0.192664
                CHANNELS 3 Zrotation Xrotation Yrotation
                JOINT RightArm
                {
                    OFFSET -21.527611 0.000000 0.000000
                    CHANNELS 3 Zrotation Xrotation Yrotation
                    JOINT RightForeArm
                    {
                        OFFSET -56.353916 0.000000 0.000000
                        CHANNELS 3 Zrotation Xrotation Yrotation
                        JOINT RightHand
                        {
                            OFFSET -47.774071 0.000000 0.000000
                            CHANNELS 3 Zrotation Xrotation Yrotation
                            End Site
                            {
                                OFFSET -26.556021 0.000000 0.000000
                            }
                        }
                    }
                }
            }
        }
    }
    JOINT LeftUpLeg
    {
        OFFSET 17.704014 0.000000 0.000000
        CHANNELS 3 Zrotation Xrotation Yrotation
        JOINT LeftLeg
        {
            OFFSET -0.000000 -81.181816 0.000000
            CHANNELS 3 Zrotation Xrotation Yrotation
            JOINT LeftFoot
            {
                OFFSET -0.000000 -62.821102 0.000000
                CHANNELS 3 Zrotation Xrotation Yrotation
                JOINT LeftToeBase
                {
                    OFFSET -0.000000 -11.507608 26.556021
                    CHANNELS 3 Zrotation Xrotation Yrotation
                    End Site
                    {
                        OFFSET -0.000000 0.000000 7.081605
                    }
                }
            }
        }
    }
    JOINT RightUpLeg
    {
        OFFSET -17.704014 0.000000 0.000000
        CHANNELS 3 Zrotation Xrotation Yrotation
        JOINT RightLeg
        {
            OFFSET -0.000000 -81.181816 0.000000
            CHANNELS 3 Zrotation Xrotation Yrotation
            JOINT RightFoot
            {
                OFFSET -0.000000 -62.821102 0.000000
                CHANNELS 3 Zrotation Xrotation Yrotation
                JOINT RightToeBase
                {
                    OFFSET -0.000000 -11.507608 26.556021
                    CHANNELS 3 Zrotation Xrotation Yrotation
                    End Site
                    {
                        OFFSET -0.000000 0.000000 7.081605
                    }
                }
            }
        }
    }
}
MOTION
Frames:    8
Frame Time:    0.008333
-6.253884    132.577103    -25.894245    -0.231997    2.064337    -2.981704    3.388993    0.869602    14.302402    -4.854526    -2.691602    4.661983    2.479525    -1.887320    -8.284431    8.464395    5.781359    -8.259679    4.466468    -0.064746    -5.110676    -44.754005    15.744544    -43.214279    -6.304503    -16.077211    -127.967270    -0.149415    -28.077892    -2.575543    -14.151463    1.286458    8.202790    25.761909    -22.369623    66.559937    -1.355339    -16.445543    18.655092    10.472519    -12.123346    43.941219    21.331150    -51.675941    -4.631921    -32.701611    50.275616    -1.044603    -2.079753    -8.419628    32.932823    0.000000    0.000000    0.000000    -7.022294    26.375217    -19.453533    -1.029205    23.018867    -3.202454    19.599268    -37.644150    1.558736    0.000000    0.000000    0.000000    
-6.291880    132.606003    -25.942772    -0.247727    2.070307    -2.977640    3.418761    0.857127    14.322200    -4.843297    -2.694388    4.668678    2.471363    -1.909865    -8.283397    8.454945    5.846235    -8.263400    4.453952    -0.068697    -5.140450    -44.747765    15.699408    -43.205910    -6.295310    -16.082121    -127.956688    -0.153923    -28.062721    -2.566808    -14.172944    1.285501    8.203851    25.752176    -22.354067    66.544876    -1.342944    -16.454508    18.668015    10.474547    -12.131413    43.961338    21.321392    -51.667885    -4.699054    -32.657154    50.195545    -1.045986    -2.076538    -8.357197    32.968338    0.000000    0.000000    0.000000    -7.001816    26.350746    -19.461443    -1.010474    23.022436    -3.211137    19.633141    -37.616047    1.576155    0.000000    0.000000    0.000000    
-6.327680    132.634613    -25.995657    -0.259094    2.079938    -2.986645    3.456612    0.854931    14.346784    -4.868605    -2.706447    4.675835    2.502016    -1.917918    -8.281710    8.420804    5.882802    -8.272742    4.468245    -0.081332    -5.143808    -44.762657    15.658515    -43.195164    -6.305867    -16.047953    -127.951248    -0.169971    -28.048908    -2.602625    -14.163780    1.282596    8.203014    25.719965    -22.321541    66.527542    -1.358953    -16.468571    18.687069    10.487786    -12.138470    43.953606    21.316177    -51.658058    -4.736003    -32.581589    50.128479    -1.074152    -2.094326    -8.302979    32.995846    0.000000    0.000000    0.000000    -6.992311    26.313148    -19.440300    -0.991057    23.038021    -3.219760    19.656870    -37.593792    1.591501    0.000000    0.000000    0.000000    
-6.360569    132.661087    -26.044666    -0.269318    2.083959    -2.998173    3.482797    0.848052    14.362278    -4.870844    -2.711358    4.680748    2.504140    -1.908686    -8.281141    8.420013    5.899536    -8.273595    4.466890    -0.094756    -5.145794    -44.771900    15.633605    -43.174126    -6.328645    -16.034267    -127.960556    -0.142209    -28.080917    -2.592399    -14.168118    1.288056    8.211430    25.718609    -22.315527    66.531395    -1.364161    -16.445934    18.695770    10.483497    -12.113925    43.975010    21.315126    -51.645260    -4.768439    -32.518539    50.070850    -1.104247    -2.098945    -8.255451    33.025322    0.000000    0.000000    0.000000    -6.981486    26.278591    -19.423466    -0.981373    23.055746    -3.242598    19.698072    -37.581066    1.606301    0.000000    0.000000    0.000000    
-6.398085    132.685669    -26.089705    -0.286325    2.076996    -3.012219    3.497375    0.839577    14.379730    -4.845366    -2.700636    4.687572    2.496874    -1.921749    -8.277706    8.426767    5.927806    -8.270572    4.456966    -0.110906    -5.148427    -44.779350    15.631473    -43.155262    -6.331049    -16.061695    -127.966141    -0.171399    -28.111536    -2.605101    -14.178795    1.294238    8.223166    25.714090    -22.320763    66.521812    -1.361337    -16.439566    18.733814    10.488739    -12.105457    43.973709    21.316776    -51.620686    -4.796542    -32.446751    50.017979    -1.121575    -2.127608    -8.217178    33.042450    0.000000    0.000000    0.000000    -6.964277    26.255926    -19.404678    -0.966064    23.073217    -3.280786    19.740162    -37.559956    1.645676    0.000000    0.000000    0.000000    
-6.427346    132.710724    -26.129705    -0.291815    2.060005    -3.021234    3.502534    0.841574    14.385983    -4.819077    -2.697172    4.690466    2.468758    -1.924135    -8.284113    8.458538    5.954618    -8.271740    4.443293    -0.113611    -5.148843    -44.800831    15.607888    -43.139420    -6.345334    -16.052862    -127.978027    -0.121836    -28.133701    -2.555354    -14.191010    1.309353    8.221975    25.726408    -22.318945    66.544846    -1.370672    -16.399324    18.757093    10.467548    -12.072994    43.955433    21.282625    -51.590000    -4.843431    -32.339733    49.980160    -1.201465    -2.146355    -8.182958    33.073486    0.000000    0.000000    0.000000    -6.961799    26.246582    -19.400637    -0.955925    23.092133    -3.287616    19.767027    -37.550053    1.671228    0.000000    0.000000    0.000000    
-6.460790    132.734894    -26.164753    -0.299603    2.037328    -3.030620    3.501718    0.836524    14.383907    -4.785049    -2.680452    4.691224    2.466942    -1.929307    -8.279507    8.460711    5.973218    -8.267927    4.430079    -0.110196    -5.136080    -44.806034    15.605580    -43.134079    -6.342114    -16.081999    -127.988739    -0.124139    -28.157373    -2.534095    -14.205685    1.334406    8.230708    25.753492    -22.340506    66.576759    -1.366426    -16.367716    18.779612    10.457993    -12.043707    43.967880    21.254944    -51.556183    -4.894491    -32.264244    49.941730    -1.237224    -2.171887    -8.154507    33.101170    0.000000    0.000000    0.000000    -6.950352    26.253738    -19.418066    -0.956806    23.089222    -3.279140    19.768124    -37.533600    1.679210    0.000000    0.000000    0.000000    
-6.487343    132.760117    -26.202511    -0.295339    2.018239    -3.035698    3.495541    0.841312    14.379849    -4.762975    -2.683978    4.690275    2.447222    -1.927747    -8.290143    8.489427    5.993451    -8.274642    4.410841    -0.104420    -5.131820    -44.795235    15.609881    -43.117172    -6.327560    -16.115892    -127.995850    -0.088741    -28.164289    -2.536500    -14.215986    1.360346    8.230444    25.777096    -22.340405    66.606461    -1.369735    -16.351662    18.812201    10.479240    -12.015389    43.992207    21.202765    -51.529724    -4.952463    -32.173847    49.906612    -1.298673    -2.198695    -8.115242    33.145809    0.000000    0.000000    0.000000    -6.951643    26.254341    -19.441710    -0.953185    23.091921    -3.287493    19.792332    -37.526035    1.715693    0.000000    0.000000    0.000000    
